<svg width="500" height="500" viewBox="0 0 500 500" fill="None" xmlns="http://www.w3.org/2000/svg">
<rect width="500" height="500" rx="55" fill="#555555"/>
<path d="M75 450C75 450 157.789 450 277.88 450C397.97 450 438 394.17 438 259.203C438 124.235 438 124 438 124" stroke="white" stroke-width="22" stroke-linecap="round"/>
<path d="M439 142C439 200.767 392.439 248 335.5 248C278.561 248 232 200.767 232 142C232 83.2326 278.561 36 335.5 36C392.439 36 439 83.2326 439 142Z" stroke="white" stroke-width="22"/>
<mask id="path-4-inside-1" fill="white">
<ellipse rx="21.5417" ry="32.8379" transform="matrix(0.975062 0.221932 -0.21107 0.977471 239.676 313.319)"/>
</mask>
<path d="M239.229 313.217C238.089 318.497 235.83 321.962 234.238 323.518C232.486 325.231 233.622 323.055 237.388 323.913L228.101 366.921C243.468 370.419 256.658 363.448 265.017 355.274C273.535 346.944 279.444 335.43 282.132 322.982L239.229 313.217ZM237.388 323.913C241.155 324.77 241.288 327.235 240.406 324.922C239.604 322.821 238.983 318.7 240.123 313.421L197.22 303.656C194.532 316.104 195.147 329.102 199.439 340.348C203.65 351.383 212.734 363.424 228.101 366.921L237.388 323.913ZM240.123 313.421C241.263 308.141 243.522 304.676 245.114 303.119C246.866 301.406 245.73 303.582 241.963 302.725L251.251 259.716C235.884 256.219 222.694 263.19 214.335 271.364C205.816 279.694 199.908 291.208 197.22 303.656L240.123 313.421ZM241.963 302.725C238.197 301.868 238.063 299.403 238.946 301.716C239.748 303.817 240.369 307.938 239.229 313.217L282.132 322.982C284.82 310.534 284.204 297.536 279.913 286.29C275.702 275.255 266.618 263.214 251.251 259.716L241.963 302.725Z" fill="white" mask="url(#path-4-inside-1)"/>
<line x1="11" y1="-11" x2="279.628" y2="-11" transform="matrix(0.698621 -0.715492 0.698621 0.715492 180.663 459.981)" stroke="white" stroke-width="22" stroke-linecap="round"/>
<line x1="11" y1="-11" x2="84.2567" y2="-11" transform="matrix(0.697741 -0.71635 0.697741 0.71635 239.71 460.318)" stroke="white" stroke-width="22" stroke-linecap="round"/>
<line x1="11" y1="-11" x2="57.4658" y2="-11" transform="matrix(0.697741 -0.71635 0.697741 0.71635 282.182 295.78)" stroke="white" stroke-width="22" stroke-linecap="round"/>
</svg>
